<svg xmlns="http://www.w3.org/2000/svg" viewBox="0 0 1920 1080" width="100%" height="100%">
  <defs>
    <linearGradient id="splashBg" x1="0%" y1="0%" x2="0%" y2="100%">
      <stop offset="0%" stop-color="#020611"/>
      <stop offset="50%" stop-color="#07101F"/>
      <stop offset="70%" stop-color="#0E1B35"/>
      <stop offset="100%" stop-color="#020611"/>
    </linearGradient>

    <radialGradient id="splashCenterGlow" cx="50%" cy="50%" r="40%">
      <stop offset="0%" stop-color="#7EE7FF" stop-opacity="0.38"/>
      <stop offset="35%" stop-color="#7EE7FF" stop-opacity="0.16"/>
      <stop offset="65%" stop-color="#0E1B35" stop-opacity="0.06"/>
      <stop offset="100%" stop-color="#020611" stop-opacity="0"/>
    </radialGradient>

    <radialGradient id="splashHorizon" cx="50%" cy="72%" r="45%">
      <stop offset="0%" stop-color="#7EE7FF" stop-opacity="0.40"/>
      <stop offset="28%" stop-color="#7EE7FF" stop-opacity="0.18"/>
      <stop offset="60%" stop-color="#0E1B35" stop-opacity="0.06"/>
      <stop offset="100%" stop-color="#020611" stop-opacity="0"/>
    </radialGradient>

    <filter id="splashBlur">
      <feGaussianBlur stdDeviation="30"/>
    </filter>
  </defs>

  <!-- Palco Escuro para Splash -->
  <rect width="1920" height="1080" fill="url(#splashBg)"/>

  <!-- Feixe Celestial Central da Splash -->
  <ellipse cx="960" cy="500" rx="420" ry="420" fill="url(#splashCenterGlow)"/>

  <!-- Luz do Horizonte Oficial -->
  <ellipse cx="960" cy="720" rx="780" ry="140" fill="url(#splashHorizon)"/>

  <!-- Silhueta da Banda com Opacidade Sutil (5%) -->
  <g fill="#01040A" opacity="0.05">
    <!-- Violonista -->
    <g transform="translate(420, 570)">
      <ellipse cx="40" cy="30" rx="14" ry="17"/>
      <path d="M 28 47 C 22 70, 18 110, 20 180 L 62 180 C 64 110, 60 70, 54 47 Z"/>
      <path d="M 25 100 C 10 90, -5 105, 5 125 C -5 145, 12 165, 35 160 C 55 156, 62 135, 52 118 Z"/>
      <path d="M 12 106 L -40 78 L -36 70 L 16 98 Z"/>
      <path d="M 24 180 L 18 275 L 30 275 L 36 180 Z"/>
      <path d="M 46 180 L 52 275 L 64 275 L 56 180 Z"/>
    </g>
    <!-- Guitarrista -->
    <g transform="translate(690, 555)">
      <ellipse cx="42" cy="28" rx="14" ry="17"/>
      <path d="M 30 45 C 24 70, 20 110, 22 185 L 64 185 C 66 110, 62 70, 56 45 Z"/>
      <path d="M 15 110 C 2 105, -5 120, 8 135 C 0 150, 18 165, 40 155 C 58 148, 60 130, 48 115 Z"/>
      <path d="M 10 112 L -55 60 L -50 54 L 15 106 Z"/>
      <path d="M 24 185 L 10 285 L 24 285 L 36 185 Z"/>
      <path d="M 48 185 L 66 285 L 80 285 L 58 185 Z"/>
    </g>
    <!-- Baterista Central -->
    <g transform="translate(960, 530)">
      <ellipse cx="-110" cy="55" rx="42" ry="7"/>
      <line x1="-110" y1="55" x2="-110" y2="210" stroke="#01040A" stroke-width="4"/>
      <ellipse cx="110" cy="50" rx="45" ry="7"/>
      <line x1="110" y1="50" x2="110" y2="210" stroke="#01040A" stroke-width="4"/>
      <circle cx="0" cy="190" r="54"/>
      <ellipse cx="0" cy="65" rx="16" ry="19"/>
      <path d="M -14 85 C -20 105, -18 135, -15 155 L 15 155 C 18 135, 20 105, 14 85 Z"/>
      <line x1="-45" y1="68" x2="-70" y2="45" stroke="#01040A" stroke-width="3"/>
      <line x1="48" y1="65" x2="80" y2="40" stroke="#01040A" stroke-width="3"/>
      <rect x="-150" y="240" width="300" height="25" rx="4"/>
    </g>
    <!-- Baixista -->
    <g transform="translate(1220, 555)">
      <ellipse cx="38" cy="28" rx="14" ry="17"/>
      <path d="M 26 45 C 20 70, 18 110, 20 185 L 60 185 C 62 110, 58 70, 52 45 Z"/>
      <path d="M 18 110 C 5 105, -2 120, 10 135 C 2 152, 20 168, 44 158 C 62 150, 64 130, 52 115 Z"/>
      <path d="M 14 112 L -68 55 L -62 48 L 20 105 Z"/>
      <path d="M 22 185 L 14 285 L 28 285 L 36 185 Z"/>
      <path d="M 46 185 L 58 285 L 72 285 L 56 185 Z"/>
    </g>
  </g>

  <!-- Névoa da Splash -->
  <ellipse cx="960" cy="740" rx="950" ry="120" fill="#7EE7FF" opacity="0.06" filter="url(#splashBlur)"/>
</svg>
